<?xml version="1.0" encoding="utf-8"?>
<!-- Generator: Adobe Illustrator 16.0.0, SVG Export Plug-In . SVG Version: 6.00 Build 0)  -->
<!DOCTYPE svg PUBLIC "-//W3C//DTD SVG 1.1//EN" "http://www.w3.org/Graphics/SVG/1.1/DTD/svg11.dtd">
<svg version="1.1" xmlns="http://www.w3.org/2000/svg" xmlns:xlink="http://www.w3.org/1999/xlink" x="0px" y="0px"
	 viewBox="0 0 80 80" enable-background="new 0 0 80 80" xml:space="preserve">
<g id="Fondo" display="none">
	<rect x="-3657.284" y="-1458.572" display="inline" fill="#B3B3B3" width="16378.897" height="16378.893"/>
</g>
<g id="Let_x27_s_talk">
</g>
<g id="Case_Studies">
</g>
<g id="The_team">
</g>
<g id="Approach">
	<g>
		<g>
			<path fill="#FF4338" d="M40,1C18.46,1,1,18.466,1,40.002C1,61.541,18.46,79,40,79c21.542,0,39-17.459,39-38.998
				C79,18.466,61.542,1,40,1z M40,71.815c-17.571,0-31.818-14.244-31.818-31.813C8.183,22.431,22.43,8.187,40,8.187
				c17.573,0,31.819,14.244,31.819,31.815C71.819,57.571,57.573,71.815,40,71.815z"/>
		</g>
		<g>
			<path fill="#FF4338" d="M51.656,52.583h-22.23c-0.287,0-0.521,0.233-0.521,0.52v6.071c0,0.285,0.234,0.515,0.521,0.515h22.23
				c0.288,0,0.518-0.23,0.518-0.515v-6.071C52.174,52.816,51.943,52.583,51.656,52.583z"/>
			<path fill="#FF4338" d="M42.504,47.989c-2.354,0-4.723-0.986-7.045-2.929l-0.197-0.166l-0.603,2.363
				c-0.034,0.198-0.142,0.282-0.339,0.282h-5.126c-0.181,0-0.288-0.108-0.288-0.289V16.719c0-0.181,0.107-0.287,0.288-0.287h7.195
				c0.181,0,0.288,0.106,0.288,0.287v9.906l0.242-0.144c1.204-0.707,3.15-1.551,5.584-1.551c2.4,0,4.817,1.058,6.628,2.903
				c2.063,2.104,3.164,5.069,3.103,8.354c0.045,3.495-1.167,6.667-3.413,8.942C47.027,46.947,44.724,47.989,42.504,47.989z
				 M40.438,32.25c-2.735,0-4.209,2.169-4.209,4.21c0,2.04,1.475,4.207,4.209,4.207c2.733,0,4.208-2.167,4.208-4.207
				C44.646,34.391,43.072,32.25,40.438,32.25z"/>
		</g>
	</g>
</g>
<g id="Guides">
</g>
</svg>
