<?xml version="1.0" encoding="utf-8"?>
<!-- Generator: Adobe Illustrator 16.0.0, SVG Export Plug-In . SVG Version: 6.00 Build 0)  -->
<!DOCTYPE svg PUBLIC "-//W3C//DTD SVG 1.1//EN" "http://www.w3.org/Graphics/SVG/1.1/DTD/svg11.dtd">
<svg version="1.1" xmlns="http://www.w3.org/2000/svg" xmlns:xlink="http://www.w3.org/1999/xlink" x="0px" y="0px"
	 viewBox="0 0 172 46" enable-background="new 0 0 172 46" xml:space="preserve">
<g id="Fondo" display="none">
	<rect x="-3805.45" y="-1460.301" display="inline" fill="#B3B3B3" width="16378.897" height="16378.893"/>
</g>
<g id="Let_x27_s_talk">
</g>
<g id="Case_Studies">
</g>
<g id="The_team">
</g>
<g id="Approach">
	<g>
		<g>
			<path fill="#FF4338" d="M19.562,44.54c-3.215,0-6.45-1.345-9.618-4l-0.269-0.226L8.852,43.54
				c-0.046,0.27-0.192,0.385-0.461,0.385H1.393C1.147,43.925,1,43.779,1,43.532V1.853C1,1.607,1.147,1.46,1.393,1.46h9.822
				c0.246,0,0.393,0.147,0.393,0.393v13.522l0.333-0.195c1.642-0.966,4.297-2.118,7.622-2.118c3.278,0,6.574,1.445,9.046,3.964
				c2.817,2.871,4.321,6.919,4.238,11.402c0.06,4.77-1.596,9.102-4.661,12.208C25.734,43.116,22.592,44.54,19.562,44.54z
				 M16.739,23.054c-3.732,0-5.746,2.961-5.746,5.746c0,2.787,2.013,5.747,5.746,5.747s5.746-2.959,5.746-5.747
				C22.485,25.976,20.335,23.054,16.739,23.054z"/>
			<path fill="#FF4338" d="M52.768,44.54c-8.679,0-15.74-7.06-15.74-15.74c0-8.678,7.061-15.738,15.74-15.738
				c8.678,0,15.739,7.061,15.739,15.738C68.507,37.48,61.446,44.54,52.768,44.54z M52.768,23.054c-3.732,0-5.746,2.961-5.746,5.746
				c0,2.787,2.013,5.747,5.746,5.747s5.746-2.959,5.746-5.747C58.513,25.976,56.365,23.054,52.768,23.054z"/>
			<path fill="#FF4338" d="M74.252,43.925c-0.246,0-0.394-0.146-0.394-0.393V14.067c0-0.246,0.147-0.392,0.394-0.392h6.997
				c0.283,0,0.423,0.194,0.46,0.376l0.83,3.188l0.271-0.247c2.911-2.646,5.853-3.932,8.998-3.932c3.919,0,6.126,2.049,6.893,2.932
				c0.15,0.188,0.147,0.318-0.023,0.602l-4.17,6.376c-0.053,0.064-0.155,0.163-0.265,0.163c-0.096,0-0.191-0.074-0.253-0.136
				c-1.066-0.904-2.415-1.354-4.023-1.354c-1.812,0-3.592,0.987-5.444,3.018l-0.057,0.065v18.806c0,0.247-0.146,0.393-0.393,0.393
				H74.252z"/>
			<path fill="#FF4338" d="M123.746,43.925c-0.246,0-0.393-0.146-0.393-0.393V27.881c0-3.324-1.5-5.01-4.456-5.01
				c-1.784,0-3.27,0.623-4.814,2.021l-0.073,0.066v18.575c0,0.247-0.147,0.393-0.393,0.393h-9.822c-0.246,0-0.392-0.146-0.392-0.393
				V14.067c0-0.246,0.146-0.392,0.392-0.392h6.999c0.269,0,0.414,0.117,0.456,0.367l0.883,3.467l0.265-0.193
				c2.647-1.942,6.561-4.255,10.181-4.255c4.273,0,11.442,1.758,11.442,13.53l-0.06,16.94c0,0.281-0.114,0.393-0.393,0.393H123.746z
				"/>
		</g>
		<g>
			<path fill="#FF4338" d="M148.67,31.474c1.33,0,2.616-0.463,3.632-1.45c0.104-0.107,0.12-0.298,0.015-0.402l-1.167-1.244
				c-0.09-0.104-0.281-0.104-0.387-0.013c-0.537,0.462-1.301,0.719-2.003,0.719c-1.688,0-2.944-1.376-2.944-3.036
				c0-1.672,1.241-3.077,2.931-3.077c0.731,0,1.461,0.268,2.016,0.76c0.105,0.105,0.268,0.105,0.373,0l1.166-1.21
				c0.12-0.12,0.12-0.299-0.014-0.418c-1.018-0.925-2.122-1.388-3.617-1.388c-2.987,0-5.395,2.403-5.395,5.395
				C143.275,29.098,145.683,31.474,148.67,31.474z"/>
			<path fill="#FF4338" d="M160.279,31.474c2.989,0,5.38-2.376,5.38-5.365c0-2.992-2.391-5.395-5.38-5.395
				c-2.988,0-5.365,2.403-5.365,5.395C154.914,29.098,157.291,31.474,160.279,31.474z M160.279,23.104
				c1.644,0,2.989,1.361,2.989,3.005c0,1.628-1.344,2.975-2.989,2.975c-1.628,0-2.974-1.347-2.974-2.975
				C157.305,24.465,158.651,23.104,160.279,23.104z"/>
			<path fill="#FF4338" d="M169.243,31.474c0.777,0,1.434-0.642,1.434-1.405c0-0.777-0.657-1.436-1.434-1.436
				c-0.762,0-1.404,0.658-1.404,1.436C167.84,30.832,168.482,31.474,169.243,31.474z"/>
			<path fill="#FF4338" d="M170.809,34.498h-27.667c-0.105,0-0.192,0.086-0.192,0.19v2.006c0,0.107,0.087,0.193,0.192,0.193h27.667
				c0.106,0,0.191-0.086,0.191-0.193v-2.006C171,34.584,170.915,34.498,170.809,34.498z"/>
		</g>
	</g>
</g>
<g id="Guides">
</g>
</svg>
