<?xml version="1.0" encoding="utf-8"?>
<!-- Generator: Adobe Illustrator 16.0.0, SVG Export Plug-In . SVG Version: 6.00 Build 0)  -->
<!DOCTYPE svg PUBLIC "-//W3C//DTD SVG 1.1//EN" "http://www.w3.org/Graphics/SVG/1.1/DTD/svg11.dtd">
<svg version="1.1" xmlns="http://www.w3.org/2000/svg" xmlns:xlink="http://www.w3.org/1999/xlink" x="0px" y="0px" width="80px"
	 height="80px" viewBox="0 0 80 80" enable-background="new 0 0 80 80" xml:space="preserve">
<g id="Fondo" display="none">
	<rect x="-4032.45" y="-1612.685" display="inline" fill="#B3B3B3" width="16378.897" height="16378.893"/>
</g>
<g id="Assets">
	<g>
		<path fill="#262729" d="M58.612,67.684c-0.338-2.041-2.113-11.79-6.474-23.768c10.442-1.669,19.609,1.074,20.755,1.43
			C71.402,54.616,66.093,62.625,58.612,67.684 M40.005,73.375c-7.71,0-14.802-2.629-20.452-7.035
			c0.602-1.227,7.337-14.259,26.138-20.809c0.073-0.02,0.145-0.049,0.217-0.072c4.687,12.152,6.611,22.343,7.11,25.272
			C49.019,72.433,44.623,73.375,40.005,73.375 M6.687,40.06c0-0.34,0.018-0.682,0.018-1.021c1.459,0.031,17.595,0.239,34.244-4.742
			c0.945,1.877,1.852,3.763,2.691,5.654c-0.431,0.118-0.875,0.255-1.314,0.396c-17.18,5.561-26.321,20.694-27.065,21.984
			C9.931,56.424,6.687,48.619,6.687,40.06 M25.844,9.906c0.86,1.208,6.825,9.452,12.345,19.268
			c-15.58,4.134-29.313,4.078-30.803,4.056C9.546,22.906,16.519,14.303,25.844,9.906 M40.005,6.747
			c8.462,0,16.196,3.168,22.083,8.397c-0.607,0.851-5.621,7.583-17.465,12.025C39.166,17.143,33.116,8.896,32.193,7.672
			C34.706,7.06,37.314,6.747,40.005,6.747 M65.788,18.981c4.642,5.67,7.456,12.896,7.523,20.772
			c-1.091-0.25-12.108-2.484-23.193-1.081c-0.236-0.575-0.475-1.148-0.723-1.724c-0.696-1.614-1.436-3.236-2.205-4.827
			C59.505,27.1,65.08,19.942,65.788,18.981 M40.005,1C18.496,1,1,18.501,1,40.006C1,61.515,18.496,79,40.005,79
			C61.503,79,79,61.515,79,40.006C79,18.501,61.503,1,40.005,1"/>
	</g>
</g>
</svg>
