<?xml version="1.0" encoding="utf-8"?>
<!-- Generator: Adobe Illustrator 16.0.0, SVG Export Plug-In . SVG Version: 6.00 Build 0)  -->
<!DOCTYPE svg PUBLIC "-//W3C//DTD SVG 1.1//EN" "http://www.w3.org/Graphics/SVG/1.1/DTD/svg11.dtd">
<svg version="1.1" xmlns="http://www.w3.org/2000/svg" xmlns:xlink="http://www.w3.org/1999/xlink" x="0px" y="0px" width="54px"
	 height="54px" viewBox="0 0 54 54" enable-background="new 0 0 54 54" xml:space="preserve">
<g id="Fondo" display="none">
	<rect x="-4046.959" y="-1816.736" display="inline" fill="#B3B3B3" width="16378.897" height="16378.893"/>
</g>
<g id="Let_x27_s_talk">
</g>
<g id="Case_Studies">
	<g>
		<rect x="10.74" y="26" fill="#999999" width="32.52" height="2"/>
		<rect x="26" y="10.74" fill="#999999" width="2" height="32.52"/>
		<path fill="#999999" d="M45.571,8.429C40.61,3.468,34.015,0.736,26.999,0.736s-13.61,2.732-18.57,7.692
			C3.468,13.389,0.736,19.984,0.736,27c0,7.015,2.732,13.61,7.693,18.571c4.96,4.96,11.556,7.693,18.571,7.693l0,0
			c7.015,0,13.61-2.732,18.571-7.693c4.96-4.96,7.692-11.555,7.691-18.571C53.264,19.985,50.532,13.39,45.571,8.429z M44.158,44.157
			c-4.584,4.583-10.677,7.106-17.157,7.106c-6.481,0-12.574-2.525-17.157-7.108C5.261,39.574,2.736,33.48,2.736,27
			c0-6.482,2.523-12.575,7.106-17.158c4.582-4.582,10.675-7.106,17.156-7.106S39.573,5.26,44.157,9.843
			C48.74,14.426,51.264,20.52,51.264,27C51.265,33.481,48.74,39.574,44.158,44.157z"/>
	</g>
</g>
<g id="The_team">
</g>
<g id="Approach">
</g>
<g id="Guides">
</g>
</svg>
