<?xml version="1.0" encoding="utf-8"?>
<!-- Generator: Adobe Illustrator 16.0.0, SVG Export Plug-In . SVG Version: 6.00 Build 0)  -->
<!DOCTYPE svg PUBLIC "-//W3C//DTD SVG 1.1//EN" "http://www.w3.org/Graphics/SVG/1.1/DTD/svg11.dtd">
<svg version="1.1" xmlns="http://www.w3.org/2000/svg" xmlns:xlink="http://www.w3.org/1999/xlink" x="0px" y="0px" width="55px"
	 height="15px" viewBox="0 0 55 15" enable-background="new 0 0 55 15" xml:space="preserve">
<g id="Fondo" display="none">
	<rect x="-3660.325" y="-1557.518" display="inline" fill="#B3B3B3" width="16378.897" height="16378.893"/>
</g>
<g id="Let_x27_s_talk">
</g>
<g id="Case_Studies">
</g>
<g id="The_team">
</g>
<g id="Approach">
	<g>
		<path fill="#FF4338" d="M2.655,13.233c0.132,0.134,0.348,0.134,0.479,0l7.167-7.164l8.361,8.357c0.064,0.067,0.148,0.1,0.24,0.1
			c0.086,0,0.173-0.032,0.238-0.1l8.361-8.357l8.359,8.357c0.132,0.133,0.348,0.133,0.477,0l8.364-8.357l7.164,7.164
			c0.133,0.134,0.348,0.134,0.479,0l2.391-2.389c0.063-0.063,0.098-0.148,0.098-0.24c0-0.087-0.034-0.17-0.098-0.237L44.94,0.574
			c-0.132-0.134-0.348-0.134-0.476,0L36.1,8.933l-8.361-8.358c-0.129-0.134-0.345-0.134-0.478,0l-8.358,8.358L10.54,0.574
			c-0.133-0.134-0.345-0.134-0.479,0l-9.795,9.793c-0.064,0.067-0.1,0.15-0.1,0.24c0,0.089,0.035,0.173,0.1,0.237L2.655,13.233z"/>
	</g>
</g>
<g id="Guides">
</g>
</svg>
