<?xml-stylesheet type="text/css" href="../../css/main.css" ?>
<svg xmlns="http://www.w3.org/2000/svg" width="55" height="15" viewBox="0 0 55 15">
	<path class="zigzag"
	d="M2.7 13.2c0.1 0.1 0.3 0.1 0.5 0l7.2-7.2 8.4 8.4c0.1 0.1 0.1 0.1 0.2 0.1 0.1 0 0.2 0 0.2-0.1l8.4-8.4 8.4 8.4c0.1 0.1 0.3 0.1 0.5 0l8.4-8.4 7.2 7.2c0.1 0.1 0.3 0.1 0.5 0l2.4-2.4c0.1-0.1 0.1-0.1 0.1-0.2 0-0.1 0-0.2-0.1-0.2L44.9 0.6c-0.1-0.1-0.3-0.1-0.5 0L36.1 8.9l-8.4-8.4c-0.1-0.1-0.3-0.1-0.5 0l-8.4 8.4L10.5 0.6c-0.1-0.1-0.3-0.1-0.5 0l-9.8 9.8c-0.1 0.1-0.1 0.2-0.1 0.2 0 0.1 0 0.2 0.1 0.2L2.7 13.2z"
	fill="#FF4338"/>
</svg>
